<?xml version="1.0" encoding="UTF-8"?><svg id="Layer_1" xmlns="http://www.w3.org/2000/svg" viewBox="0 0 960.9 371.2"><defs><style>.cls-1{fill:#9f2872;isolation:isolate;opacity:.5;}.cls-2{fill:#4d4d4f;}.cls-3,.cls-4{fill:#231f20;}.cls-5{fill:#521d3e;}.cls-6{fill:#ccc;}.cls-4{stroke:#231f20;}.cls-4,.cls-7{stroke-miterlimit:10;}.cls-8{fill:#621c35;}.cls-9,.cls-7{fill:#fff;}.cls-10{fill:#9e305f;}.cls-11{fill:#9e4628;}.cls-7{stroke:#fff;}</style></defs><path class="cls-6" d="M4.14,291.2c83-97,106-85,106-85,0,0,3.26-2.19,4.96-3.08,92.04-47.92,125.04,3.08,125.04,3.08,0,0,3.42,2.25,4.73,2.5,155.64,28.61,141.27,74.5,141.27,74.5,0,0,3.51,4.77,4.94,4.06,43.06-21.06,102.06,83.94,102.06,83.94,0,0,20.25-91.55,73.83-91.32,3.57.02,7.61,3.1,11.17,1.32,88-44,154-21,154-21,0,0,5.93-3.68,8.72-5.47,63.27-40.53,117.77,19.07,117.77,19.07,0,0,3.44,6,5.51,6.4,72,14,81,91,81,91,0,0,84-102-136-288-3.42-2.89,8.58-11.57,8-16-.2-1.55-3.36-2.48-6.23-.46-27.79,19.54-157,92.06-298.83,80.92-110.5-8.68-206.82-104.22-255.94-146.46-1.52-1.3-7.28-1.86-8,0-1.01,2.61,7.52,8.8,5,10C38.41,113.22-16.87,315.75,4.14,291.2h0Z"/><path class="cls-2" d="M960.64,306.91c1.47,3.93-1.09-12.71-2.76-16.56-26.15-60.31-159.75-208.85-159.75-208.85l-3.61,2.32s146.56,170.68,166.12,223.09h0Z"/><path class="cls-8" d="M464.2,28.96c-5.97,10.35-14.54,84.83,13.57,80.77v26.49s-28.45,6.77-38.12,7.75c-14.77,1.49-46.59.05-58.8-8.4-37.91-26.23-97.06-105.04-124.72-132.7-1.41-1.41-9.34-.47-8,1.02,28.81,31.92,124.96,144.6,124.96,144.6l76.89,15.51s-22.02,45.82,0,67.84c2.35,2.35-.51,11-3.23,12.92-8.93,6.33-33.96.74-43.29,6.46-8.07,4.94-17.33,32.4-17.33,32.4,0,0-10.77,12.74-9.81,17.35,1.53,7.31,24.81-16.43,24.81-16.43,0,0,1.17-20.67,9.43-21.32,19.82-1.57,38.77-9.85,44.69.28,12.13,20.74,26.87,31.94,33.48,109.37.15,1.77,7.11,1.78,7.11,0,0-17.39-8.03-62.41-1.61-81.26,2.3-6.76,12.36-18.66,19.05-21.01,10.37-3.64,44.89-7.1,48.28,3.35,4.34,13.4,24.18,26.88,25.2,24.66,6.75-14.75-8.22-16.11-8.65-17.43-3.8-11.78-3.59-15.66-4.15-17.02-3.99-9.66-55.07-9.47-46.47-15.53,48.4-34.08,31.02-78.18,31.02-78.18l93.69,5.82s164.28-104.59,164.4-105.12c.52-2.29-1.27-4.62-5.72-2.75-16.68,7.01-117.73,80.88-161.91,94.94-21.28,6.77-87.87-16.15-87.87-16.15,0,0-4.41-27.05,1.94-29,33.25-10.23,31.93-54.03,31.93-80.27,0-1.56-41.86,36.96-50.02,27.86-17.46-19.48-48.46-5.81-48.46-5.81,0,0-28.61-37.42-32.3-31.02h0Z"/><path class="cls-10" d="M505.9,106.39s-23.84-3.18-23.76,11.47c.03,5.97,3.09,15.49,18.03,15.66,6.8.08,12.35-7.28,12.35-7.28,0,0,5.51,7.28,18.3,7.28s14.82-8.66,15.22-13.56c1.05-13.12-23.82-13.56-23.82-13.56,0,0,9.04-3.97,9.04-8.82,0-12.01-12.57-10.49-16.1-10.59-3.8-.1-15.88-2.48-15.88,8.82,0,4.85,6.61,10.59,6.61,10.59h0Z"/><path class="cls-1" d="M512.08,109.54c-5.11-.15-25.04-1.98-25.8,7.18-.42,5.03,7.8,10.48,17.2,10.59,5.74.07,8.82-4.85,8.82-4.85,0,0,4,4.51,9.7,4.85,10.38.62,19.41-3.29,19.41-8.6,0-8.08-25.41-9.06-29.33-9.17Z"/><path class="cls-4" d="M494.65,117.19s12.93-4.56,17.42-4.41c5.34.18,20.31,6.61,20.31,6.61,0,0-15.07,1.21-20.09.88-4.47-.29-17.64-3.09-17.64-3.09h0Z"/><path class="cls-3" d="M548.02,80.58c-4.5-1.6-12.26,9.78-12.35,14.55-.1,5.03,7.43,16.9,12.35,15.88,7.45-1.55,9.92-26.9,0-30.43h0Z"/><path class="cls-3" d="M485.67,77.17c4.5-1.6,12.26,9.78,12.35,14.55.1,5.03-7.43,16.9-12.35,15.88-7.45-1.55-9.92-26.9,0-30.43h0Z"/><path class="cls-11" d="M486.27,83.23c-4.21,1.64-4.38,16.96,0,18.08,2.97.76,8.36-5.9,8.38-8.97.02-3.09-5.5-10.24-8.38-9.11Z"/><path class="cls-11" d="M547.7,86.74c4.21,1.64,4.38,16.96,0,18.08-2.97.76-8.36-5.9-8.38-8.97-.02-3.09,5.5-10.24,8.38-9.11Z"/><ellipse class="cls-3" cx="546.93" cy="94.48" rx="3.99" ry="4.85"/><ellipse class="cls-3" cx="487.04" cy="92.34" rx="3.99" ry="4.85"/><ellipse class="cls-9" cx="487.04" cy="90.56" rx="1.99" ry="3.06"/><ellipse class="cls-9" cx="546.93" cy="92.69" rx="1.99" ry="3.06"/><ellipse class="cls-4" cx="506.97" cy="97.2" rx="2.25" ry="2.72"/><ellipse class="cls-4" cx="521.29" cy="97.8" rx="2.25" ry="2.72"/><path class="cls-5" d="M591.24,45.08s-34.93,31.94-30.21,56.29c3.14,16.17,23.53-5.62,26.68-19.91,2.18-9.9,3.53-36.39,3.53-36.39Z"/><path class="cls-5" d="M466.2,37.8c-11.2,48.82,9.77,75.97,8.16,61.53-1.55-13.86,8.68-34.37,8.68-34.37,0,0-14.78-36.18-16.84-27.16Z"/><path class="cls-2" d="M238.1,203.58c.11,2.12,6.96,7.23,6.77,5.11-10.02-114.77,23.05-184.44,23.05-184.44l-3.31-3.86s-33.47,43.06-26.51,183.19h0Z"/><path class="cls-2" d="M258.49,27.74s-112.61,122.26-140.09,172.86c-1.14,2.09-9.23,6.09-8.26,3.91,24.7-55.36,150.88-188.29,150.88-188.29l3.6,4.19-6.12,7.34h0Z"/><polygon class="cls-2" points="260.56 16.21 257.47 12.07 60.48 165.09 52.04 180.86 260.56 16.21"/><path class="cls-2" d="M.29,286.63C37.47,115.62,253.01,7.62,253.01,7.62l2.28,2.62S52.04,114.56,9.41,283.56C8.55,286.98,0,294.08,0,294.08c0,0-.98-1.56.3-7.44h0Z"/><path class="cls-2" d="M786.14,89.19s9.27,80.68-53.98,171.01c-1.48,2.11,7.25-3.36,8.72-5.47,66.23-95.14,53.63-170.91,53.63-170.91l-8.38,5.37h0Z"/><path class="cls-2" d="M858.64,273.8c-.44,1.37,3.29,4.71,3.29,4.71,0,0,5.45,3.96,5.72,2.43,11.72-65.79-66.96-201.1-66.96-201.1l-5.29,3.4s78.64,142.84,63.24,190.55h0Z"/><path class="cls-2" d="M942.24,357.57c-1.6,3.09,1.12,16.62,2.9,13.63,73.99-123.84-141.35-293.35-141.35-293.35l-5.68,3.65s204.29,159.58,144.13,276.07h0Z"/><path class="cls-5" d="M468.03,240.26c2.5,8.06,12.59,27.16,21,26.44,29.47-2.49,63.31-53.2,61.89-100.8-.28-9.32-1.59-40.53-9.51-35.61-15.02,9.33-28.9-4.07-28.9-4.07,0,0-9.76,13.4-24.57,3.85-.93-.6-35.47,60.09-19.92,110.18h0Z"/><polygon class="cls-7" points="508.99 118.45 512.07 112.78 506.97 113.52 508.99 118.45"/><polygon class="cls-7" points="514.32 113.09 513.84 118.45 517.96 114.03 514.32 113.09"/></svg>