<?xml version="1.0" encoding="UTF-8"?><svg id="Layer_1" xmlns="http://www.w3.org/2000/svg" viewBox="0 0 4363 5000"><defs><style>.cls-1{fill:#6b2400;}.cls-2{fill:#69ff77;}.cls-3{fill:#ff5b00;}.cls-4{fill:#ad0000;}</style></defs><polygon class="cls-2" points="366.29 2099.69 320.75 2535 484.27 3374.34 964.54 3976.11 1687.2 4454.81 2181.55 4524.4 2815.28 4383.58 3563.03 3814.35 3900.47 3263.05 4114.49 2484.51 4011.78 2099.69 3606.86 2720.17 2905.12 3124.47 2032.61 3312.05 1647.25 3075.94 1213.79 2958.23 621.69 2612.85 366.29 2099.69"/><polygon class="cls-1" points="3666.78 1485.26 3488.97 1551.03 2881.33 1770.5 2600.14 1576.72 2402.2 1770.5 1913.88 1770.5 1734.9 1548.64 1541.82 1816.93 907.2 1485.26 661.83 1485.26 661.83 1590.6 893.46 1722.68 1218.98 2042.14 1541.82 2317.31 1913.88 2535 2425.76 2535 2789.25 2330.31 3446.85 1770.5 3630.65 1576.72 3666.78 1485.26"/><polygon class="cls-4" points="1025.32 1871.91 964.54 2091.84 1025.32 2390.31 1218.98 2606.51 1647.25 2535 1810.38 2484.51 1471.8 2295.22 1218.98 2042.14 1025.32 1871.91"/><polygon class="cls-4" points="3314.42 1863.01 3375.2 2082.94 3314.42 2381.41 3120.77 2597.61 2692.5 2526.1 2529.37 2475.61 2867.94 2286.31 3120.77 2033.24 3314.42 1863.01"/><path class="cls-3" d="M4285.6,2203.2c-105.57-388.21-268.68-625.44-512.57-847.67,121.11-346.68,127.73-639.55,100.83-989.91-.99-15.19.64-37.58-4.02-51.74-18.75,54.43-36.08,110.18-58.66,163.16-135.67,318.33-342.58,540.74-512.11,646.13l-90.47-60.96c-14.15-9.31-34.78-18.83-46.08-30.98,3.19-340.03,250.58-642.91,498.41-874.06l-138.57,58.81c-237.77,111.54-453.88,257.45-649.64,432.27l-116.26,113.96c-47.3,50.3-143.73,185.55-310.99,163.74,9.55-194.1-108.33-261.9-170.17-451.37-49.08-150.35-45.21-318.63-35.49-474.6-110.61,162.29-234.77,393.2-273.34,588.62-20.73,105.04-18.92,250.01-2.22,335.02-22.72,3.01-46.5,7.05-69.45,6.53-139.14-3.17-210.42-94.45-290.27-180.51-133.01-143.38-190.29-191.17-338.73-293.36-144.45-99.44-297.85-190.58-459.57-259.12-27.24-11.54-61.36-30.15-90.06-33.89,347.35,355.72,444.64,553.36,497.54,853.83-53.86,33.56-106.8,70.91-152.47,115.24-204.61-145.67-366.3-337.84-468.1-568.16-36.01-81.47-63.27-168.06-87.06-253.88l-17.36,166.76c-40.77,573.38,109.69,870.81,105.92,882.73-1.16,3.68-25.56,21.46-30.69,26-82.62,79.5-188.86,171.9-305.36,370.31-508.3,865.73-282.57,2341,814.38,2836.4,159.14,66.28,114.9,49.03,200.91,79.16,10.18,3.59,22.29,6.7,31.74,11.81,26.24,14.16,50.81,39.65,75.43,57.49,176.29,127.79,300.04,152.45,494.04,176.59,32.14,4,66.22,5.51,97.74,12.42,21.63,4.75,40.92,17.65,61.03,26.63,63.94,28.61,130.48,42.77,150.8,43.4,21.34.7,105.81-23.66,151.9-44.75,17.09-7.83,35.28-20.99,53.27-25.68,54.52-14.19,305.23-5.18,511.61-136.26,57.93-36.79,110.93-77.9,172.42-109.62,75.41-38.89,263.84-110.17,429.3-204.49,723.05-412.21,1012.7-1429.4,782.45-2275.9v-.08ZM3644.43,2441.35c36.42-66.13,50.67-140.76,66.6-213.73,4.42,69.31-10.52,143.77-21.26,212.08-3.6,22.92-3.39,54.41-16.53,73.74-83.72,123.19-286.52,301.85-527.93,400.81-134.43,55.1-122.86,44.36-185.37,18.96-152.26-65.9-406.64-184.9-408.1-185.88,19.66.39,365.72,126.07,424.35,135.78,65.96,10.93,210.07-62.39,262.49-99.12-350.39,117.21-162.82,93.86-709.02-115.17,65.98-1.35,407.14,92,493.46,107.25-35.5-20.29-76.8-34.37-114.25-50.74-236.14-103.16-259.28-104.24-393.76-139.87,40.72-2.24,84.36,7.87,124.23,15.82,194.08,38.69,307.48,112.73,528.56,97.61,215.17-14.72,410.52-129.23,447.79-171.8-41.62,7.8-287.06,150.75-563.62,115.27,57.12-12.55,309.93,16.91,498.11-263.4,18.31-27.29,36.85-55.47,48.24-86.43-20.51,21.65-38.43,45.21-59.77,66.25-71.69,70.69-169.82,137.82-263.44,175.32,10.47-11.12,29.38-19.92,42.28-28.35,133.37-87.13,248.75-296.26,279.98-417.23-13.71,16.73-23.34,38.6-34.72,57.13-110.41,161.41-101.18,149.15-113.87,160.38,14.26-41.06,78.72-108.55,116.4-379.68,13.34-95.97,22.03-193.09,14.3-289.91,57.62,134.63,80.96,284.06,89.01,429.4,16.47,297.44-52.42,375.94-60.28,427.79,14.72-14.26,26.28-34.42,36.12-52.28h0ZM3890.91,2506c2.82-14.23,3.85-31.55,9.52-44.72.67,39.5-8.75,83.04-13.99,122.17-29.59,220.93-76.86,393.45-123.43,575.46-7.47-24.07-12.68-71.2-23.54-154.16-15.56,15.25-29.18,41.07-42.32,59.22l-90.29,121.19c-.34-21.84,8.18-48.62,12.96-70.18,30.93-139.8,83.42-269.99,126.41-405.93l81.23-288.5-21.39,362.61c58-150.08,67.18-200.39,84.84-277.16h0ZM3595.34,3629.1c-22.32,55.14-74.34,107.45-112.32,152.78-30.4,36.3-60.82,76.02-95.52,108.3,36.93-177.27,36.39-170.64,38.04-189.97-21.34,22.45-140.73,259.35-354.25,429.15,158.63-299.72,145.53-274.2,146.46-279.65-15.67,14.89-21.5,27.18-33.65,41.62-104.56,118.98-43.23,54.68-286.55,298.37,36.08-67,55.8-144.74,72.95-218.45-15.17,22.01-103.71,183.42-220.57,293.74,25.33-70.96,41.13-149.73,37.23-225.45-18.94,24.73-94.68,217.11-221.57,344.04l-86.27-424.15,133.54-35.52c36.86,152.91,31.39,132.77,48.98,286.51,53.4-111.85,88.51-228.54,103.43-325.24,91.48-33.59,81.03-29.57,85.86-31.94,11.88,45.19,51.54,153.43,63.16,178.09,40.05-90.5,20.22-36.95,67.23-169.1,2.9-8.41,5.6-22.92,10.28-29.96,3.09-4.65,15.59-9.28,20.96-12.08,78.81-42.42,47.83-24.48,134.31-77.19,138.58-91.28,294.55-230.38,341.19-295.75,4.37,46.84,5.91,96.01.76,142.76,147-265.9,173.93-400.03,223.59-476.56,40.3,143.37,42.43,152.75,51.44,173.49,29.88-140.31,193.63-502.6,241-1120.9,4.71,10.06,20.52,234.31-22.33,545.71-29.98,217.91-56.66,346.84-138.47,552.29-45.3,113.78-104.72,228.57-186.52,320.65l35.67-215.92c-44.82,81.37-63.5,174.86-98.07,260.28l.03.05ZM1271.04,4100.2c-249.28-200.62-307.65-383.4-323.16-411.64.08,15.84,3.49,32.97,5.7,48.7,8.65,61.63,27.3,120.83,49.12,178.94-212.56-211.94-288.68-368.51-340.11-540.46,14.3,148.91,28.41,178.32,52.51,237.84-9.04-9.7-8.85-10.53-62.62-95.77-132.27-217.57-214.24-467.72-251.46-719-41.49-252.5-40.37-472.47-24.65-587.48,6.97,41.7-3.31-9.28,33.83,310.01,55.02,284.07,63.45,371.59,204.06,776.48l28.18-185.74c49.23,85.02,200.33,434.97,211.86,452.62l18.57-113.08c181.15,175.14,289.02,277.06,520.12,368.67l56.55,355.73c-15.68-4.97-40.2-31.93-52.47-43.42-92.67-86.73-176.96-178.8-241.96-288.26,37.04,127.45,71.78,180.28,115.93,255.87h0ZM522.95,2430.8c9.53,19.28,157.29,442.15,182.52,513.84,23.07,73.5,48.06,146.84,58.01,223.47l-2.78-1.23c-7.99-5.13-17.05-17.87-23.72-24.99-45.15-48.16-95.05-102.95-113.38-165.4l-20.18,154.54-2.98,1.11c-10.18-26.71-15.32-57.04-22.52-84.77-37.57-144.83-74.28-294.74-91.28-443.38-2.98-26.04-8.21-54.28-6.34-80.39,12.07,27.76,41.82,180.22,77.19,272.78l-34.52-365.58h0ZM834.67,2852l63.4,159.71c58.69,136.06,154.95,306.31,222.17,407.68,17.07,23.51,10.07-3.91,19.52,80.45-132.27-49.32-233.76-98.3-346.42-252.49-9.84-13.46-3.67-40.2,41.33-395.35h0ZM1244.08,3546.36c-69.19-24.67-47.78-28.33-78.93-39.88-13.54-89.31-44.81-259.35,21.58-423.87,6.56-16.25,12.36-33.75,22.98-47.86l4.64.13c9.64,14.75,14.13,40.41,19.26,57.7,46.49,152.23,24.16,87.89,100.67,285.78-93.76,180.54-84.5,165.03-90.19,168.01h0ZM1345.71,3598.68c-45.84-20.34-28.99-12.19-73.71-35.31l51.87-108.83c12.12,46.49,15.66,96.49,21.84,144.14h0ZM1425.82,3855.94c-81.66-498.2-77.88-459.58-71.89-479.53,16.09-53.59,37.51-189.92,89-300.67,45.92,214.22,34,176.56,133.3,455.41,3.81,10.65,16.15,35.69,16.22,45.95.03,5.03-8.14,19.66-10.27,24.97-57.92,158.33-97.7,288.1-130.84,374.05-6.43-13.54-7.24-21.59-25.52-120.18h0ZM1349.94,2958.22c-167.46-55.2-314.84-144.69-455.02-249.91-56-42.03-113.78-87.41-159-141.16-36.33-43.18-54.35-152.72-62.65-205.04-6.3-39.68-14.16-85.36-10.51-125.46,23.96,113.21,17.63,97.53,57.37,192.73,7.2,17.25,14.38,40.66,27.39,54.05-13.61-94.01-32.73-66.48-44.47-274.42-13.61-241.37,27.82-390.69,101.77-532.62-17.3,148.83-5.77,302.63,49.56,442.9,21.36,54.15,49.59,104.2,80.23,153.53-90.03-88.61-99.5-108.64-164.04-201.85,10.82,27.94,17.25,57.41,29.11,84.82,52.18,120.58,158.04,241.38,246.01,311.12,11.2,8.88,23.84,16.41,33.84,26.64-14.09-3.21-29.21-11.34-42.63-17.04-163.99-69.65-230.84-155.51-261.26-180.17,7.42,18.7,19.22,36.52,29.42,53.87,65.71,111.75,159.66,192.67,278.18,243.93,74.02,32.01,150.15,45.7,229.29,57.67-139.79,10.95-284.15-25.42-416.07-69.68-50.02-16.78-108.13-43.59-161.44-33.33,15.4,6.49,31.47,7.43,47.07,14.09,115.04,52.24,261.29,125.86,432.12,135.92,209.66,12.33,387.45-69.45,508.45-95.09,38-8.06,129.54-23.28,148.96-19.39-255.89,59.57-328.81,130.59-554.26,176.36,27.55.93,55.92-1.95,83.37-4.42,205.47-18.51,347.6-88.36,458.6-87.97-94.24,27.06-349.58,133.76-439.42,171.92-11.87,5.36-33.34,18.81-45.65,20.25-5.4.63-24.74-7.49-31.38-9.46-113.94-33.68-75.12-19.65-202.58-69.06-14.82-5.85-29.78-13.64-45.38-16.95,19.81,22.92,252.82,125.64,283.14,123.74,16.85-1.07,426.34-135.97,443.87-138.75-25.36,15.51-38.87,20.51-472.02,208.22h0ZM1085.59,1929.62c167.45,210.74,377.99,387.22,601.61,535.16-9.49,8.5-26.18,13.63-90.91,37.59-119.55,34.66-274.99,53.38-390.38-4.66-81.44-40.96-133.23-125.63-160.64-209.93-39.78-122.32-16.83-245.87,40.32-358.16h0ZM1872.21,3094.32c26.68,99.02,190.53,101.38,258.52,5.96-32.26,6.18-65.82,10.47-98.46,4.71-23.99-4.03-51.11-13.55-64.74-33.57-23.85-35,29.58-127.84,51.84-172.8,113.88-223.92,82.39-163.99,143.16-273.8-.93,32.53-3.03,66.3-.13,98.73,4.03,45.25,15.44,90.07,21.76,135.08,12.34-76.8,29.06-147.78,27.22-226.6,168.33,315.91,195.44,357.07,193.12,428.91-18.48,26.57-46.02,38.67-77.14,44.09-30.74,5.36-56.14-2.13-85.96-2.65,76.46,114.76,292.62,73.91,263.03-55.63-9.32-40.79-23.06-59.66-105.96-200.78-42.41-72.6-82.19-147.15-131.32-215.55,84.85,65.48,176.36,207.66,232.66,299.42,21.52,35.07,52.25,77.4,57.68,119.25,16.6,128.27-196.24,240.93-372.76,88.37-11.52,9.75-23.18,20.78-35.97,28.82-48.57,30.52-118.09,49.98-175.36,44.34-86.12-8.48-166.7-85.1-155.97-163.24,6.94-50.55,45.98-100.6,72.56-142.86,45.56-72.46,92.7-144.29,148.87-209.03,18.17-20.94,33.67-40.87,53.96-54.36-3.64,6.55-37.31,64.4-145.41,250.49-43.99,75.99-92.85,137.28-75.23,202.67h.02ZM1913.89,1259.62c10.82-37.46,41.53-101.3,70.22-136.73,40.28-49.73,101.88-80.91,160.94-102.36l6.28,1.38c-24.62,40.49-124.09,232.06-174.35,398.54-12.74,42.19-21.65,85.27-31.55,128.18-2.84-14.65.19-34.12.7-49.24,5.17-152.01,12.27-197.69,53.44-344.52-33.19,29.27-59.91,68.99-85.68,104.75h0ZM2422.16,1425.83c12.29,173.31,12.41,144.78,11.9,164.77-7.63-14.44-8.69-41.43-12.02-58.12l-18.56-77.9c-49.97-179.55-146.05-372.79-191.26-436.7,63.55,19.41,127.97,59.7,161.14,93.27,37.89,38.35,68.41,98.35,82.44,149.74-13.8-12.35-24.83-34.09-36.36-49.09-15.41-20.03-32.97-38.49-50.26-56.88,26.73,87.51,43.04,179.99,52.98,270.91h0ZM2206.21,1511.38l-15.54,259.12-2.25-.36-23.61-304.49c-20.59-209.04-34.08-295.22,18.54-449.23,67.73,162.4,42.73,292.68,22.87,494.97h0ZM2631.91,3267.48c169.75,398.34,147.93,328.18,135.68,425.22-25.5,202.04-45.73,266.04-88.23,383.91-27.13-115.61-40.22-197.32-72.48-271.45-29.74-68.33-74.59-130.52-108.78-196.82l133.82-340.86h0ZM1740.54,3263.05c13.81,32.97,118.69,346.55,118.45,350.87-.44,7.92-15.89,26.92-20.31,34.24-62.24,103.09-124.95,271.55-144.89,423.38-53.89-135.62-73.47-277.51-79.56-423.49-3.88-93.16-26.37-6.78,126.32-385h0ZM2045.67,3376.43l144.35,355.26,131.01-357.35c236.45,398,197.34,331.7,226.68,382.75-191.15,74.4-551.94,72.17-737.33,17.08,25.17-63.97,40.23-83.11,235.3-397.73h-.01ZM3228.97,3420.9c-1.99,14.19-5.47,21.73-35.77,100.36-13.91,5.72-32.36,14.82-47.38,14.89-34.3-34.37-80.98-94.9-102.97-141.92,6.49-40.28,2.22-16.55,115.05-358.06,28.34,82.21,81.58,309.86,71.07,384.73h0ZM3234.54,3462.43c195.16-376.29,187.52-367.35,298.42-683.54,1.77,6.79-4.39-41.2,26.98,285.03,19.75,214.84,3.3,226.28-46.75,273.9-86.44,82.25-201.05,138.38-312.55,181.23,1.03-5.7,17.41-25.71,33.91-56.62h0ZM3045.88,3466.35l69.42,86.74c-69.56,58.12-48.22,40.51-94.35,77.96l24.93-164.7h0ZM2915.54,3942.22l-4.02-5.46c-124.86-355.9-116.02-326.24-116.41-330.71-.51-6.02-9.6,35.59,121.24-530.11,49.5,115.14,104.72,302.03,106.73,316.49,4.29,30.94-51.82,396.39-107.55,549.79h0ZM2683.83,2464.02c224.67-136.58,327.82-246.97,532.47-457.08,23.78-24.96,47.2-51.82,73.27-74.34l1.96,1.45c9.2,12.14,14.57,34.9,19.41,49.33,58.38,174.18,50.68,321.38-84.72,463.55-41.39,43.45-49.54,45.43-92.06,61.53-111.14,42.09-246.18,24.78-357.61-7.42-28.45-8.21-69.71-18.58-92.73-37.02h0ZM3504.69,1645.58c-337.46,231.36-679.41,806-1167.9,861.97,35.81-35.79,61.13-72.48,83.06-118.14,4.33-9.02,11.21-20.05,12.65-29.8-17.28,10.23-68.09,84.54-144.73,119.22-32.02-89.03-4.05-172.3,38.5-258.25,7.37-14.9,14.74-32.98,25.07-46.02-12.35,62.89-26.43,123.7-10.89,188.14,42.89-151.1,58.25-173.53,139.6-315.66,14.84-25.94,27.21-53.41,43.14-78.68l-81.1,308.02c52.52-73.17,83.93-158.68,109.42-244.35,59.2-198.92,60.28-304.38,68.21-426.69,53.7,225.82,26.89,461.67-64.19,674.03-17,39.65-40.87,74.69-59.2,113.12,10.88-4.85,21.55-18.34,30.15-26.81,81.95-80.62,146.79-178.7,212.42-272.7l-66.53,174.49,228.5-307.86c-4.74,16.76,11.61-37.63-95.84,230.18,23.58-29.45,42.6-63.2,64.12-94.28,131.5-182,208.61-297.54,300.96-369.89,11.72-9.19,23.47-19.31,37.46-24.7-30.25,38.6-40.04,34.64-120.05,157.18-23.36,35.78-41.62,75.31-65.9,110.14-2.08,2.99-3,5.04-3.71,8.6,37.45-34.6,69.37-81.43,101.18-121.25,26.68-33.41,55.29-63.41,84.41-94.59,42.63-45.64,90.85-99.26,148.29-125.8-52.25,49.34-97.86,116.88-105.6,136.24,19.16-9.73,139.18-147.89,318.5-184.45,21.53-4.39,43.95-9.66,65.98-10.28-43.33,21.66-85.76,41.27-125.97,68.84v.02ZM3131.07,1130.93c133.8,83.77,239.79,207.43,318.44,342.97,12.71,21.91,33.75,52.43,39.46,77.12-14.49-13.62-152.04-273.97-490.88-430.04l-74.75-32.9c-12.93-5.28-26.83-8.65-39.42-14.63-23.44-11.13-44.82-26.58-68.65-37.85,110.19,12.84,220.44,35.62,315.8,95.33h0ZM2676.49,1025.62c100.81,25.93,194.85,98.06,264.23,173.51,75.64,82.26,134.93,179.71,187.55,277.71,12.47,23.22,27.41,47,36.27,71.8-21.19-15.97-46.94-99.5-221.68-272.32-114.67-113.42-175.02-151.12-288.37-200.37,11.5,24.88,29.64,47.27,36.48,74.67-42.19-38.62-106.27-99.13-155.83-128.38-7.59-4.48-20.4-9.45-26.17-15.82,56.68,2.27,112.25,4.99,167.53,19.21h0ZM2501.78,1059.03c156.64,124.98,275.28,473.9,287.47,579.69-10.57-21.4-65.24-206.22-200.93-396.49-115.03-161.31-130.94-125.22-258.98-232.63,68.4,2.17,117.14,5.31,172.44,49.44h0ZM2181.88,197.14c.14,33.78-7.41,67.71-8.9,101.54-1.12,25.44.95,51.62,2.55,77.03,5.78,91.62,23.92,178.59,65.23,261.28,42.77,85.6,143.98,229.39,103.33,303.71-3.48,6.36-6.06,8.41-12.83,10.43-1.49-.94-3.76-1.21-4.45-2.83-5.59-12.96,2.32-33.15-16.96-90.04-28.51-84.06-76.17-141.75-128.1-314l4.94,293.02c-29.73-72.55-53.18-112.8-46.08-276.14l10.35-142.27c3.21-29.02,9.2-58.29,10.19-87.45-22.26,55.79-77.4,281.8-78.44,443.54-.86,133.89,25.48,163.95,17.98,178.66-13.02.14-17.11-3.47-22.06-13.27-25.81-50.97-32.24-109.07-34.17-165.37-7.18-208.8,63.83-394.36,137.42-577.84h0ZM2047.84,1006.1l-78.92,57.8c-63.59,44.77-93.5,51.93-185.35,184.92-136.49,197.63-192.38,369.89-199.71,378.45,4.02-34.46,48.41-180.77,115.09-322.07,154.47-327.38,268.58-289.7,348.89-299.11h0ZM1629.35,1042.72c70.86-27.62,159.36-37.85,235.31-35.8-46.27,29.03-137.66,84.1-203.51,147.74l39.37-77.62c-135.69,59.72-249.07,128.98-411.15,341.39-45.89,60.16-56.31,91.05-70.39,102.34,7.14-33.58,165.83-328.17,321.32-430.06,27.73-18.18,58.1-35.92,89.05-47.98h0ZM912.41,1477.77c8.67-22.57,29.23-45.47,43.32-65.37,50.67-71.55,107.12-140.01,169.43-201.71,108.24-107.18,174.01-144.73,395.22-169.91-93.33,44.58-251.59,114.24-429.74,263.8-110.19,92.51-164.08,164.82-178.24,173.19-1.56,2.71-2.68,5.57-5.2,7.49,1.13-3.75,2.5-4.77,5.2-7.49h0ZM1145.31,1812.04c-5.01-13.49-21.96-29.75-31.24-41.52l-66.73-87.03c-14.41-17.01-31.22-31.8-45.79-48.69,36.64,14.13,72.53,46.08,102,71.88,35.53,31.11,71.25,62.31,103.58,96.8,43.11,45.99,147.87,182.82,158.61,191.05-5.93-15.96,4.9,4.47-131.44-208.88-18.28-27.13-40.87-54.34-56.58-82.79,246.76,241.83,348.13,452.22,377.82,481.43-8.46-37.09-30.48-75.4-46.51-109.74l-31.59-73.54c-6.14-13.81-13.83-26.86-17.65-41.56,25.22,26.5-32.95-37.9,174.94,232.9,59.52,86.03,58.32,86.11,65.63,90.92-1.62-11.04-.45-6.01-48.02-131.51-7.06-17.85-16.67-36.49-20.06-55.36,14.82,18.17,26.23,39.45,39.99,58.52,157.5,198.34,180.22,231.12,205.17,242.27-7.27-19.37-26.22-39.39-36.8-57.84-95.24-165.99-158.3-457.77-85.23-724.58,1.52,80.31,5.97,162.43,18.91,241.82,20.36,124.9,81.76,320.46,159.84,420.63l-86.35-305.39-.41-2.42c16.82,21.95,25.06,44.13,38.52,67.07,96.03,163.61,109.9,201.86,142.78,328.91,15.14-139.38-9.67-162.81-13.82-198.13,8.13,8.95,43.1,83.99,51.7,105.33,26.47,65.76,43.01,137.21,13.82,205.13-60.06-31.82-107.58-76.83-148.62-130.79,5.33,17.86,14.09,34.38,22.26,51.07,21.17,43.22,42.53,76.15,78.35,108.78-317.91-39.6-600.73-315.59-851.64-570.7-127.85-131.19-265.19-285.7-468.56-381.7,21.66,1.32,47.89,12.52,68.5,19.57,267.32,91.48,275.76,170.26,364.64,238.06h0ZM185.96,2270.03c58.1-233.3,144.83-455.59,295.57-645.58,136.15-171.59,314.75-278.92,342.18-285.81-24.02,26.13-61.72,36.17-142.75,127.19-104.56,117.46-160.95,290.74-225.06,462.27l-33.72,117.63c6.66-110.26,37.11-215.57,59.78-323-72.48,116.37-152.37,305.04-235.96,490.15l-101.16,271.63c.11-17.73-.92-8.59,41.11-214.47h.01ZM614.25,4075.63c-287.79-354.41-443.47-825.1-420.05-1295.9,1.77-35.4,8.74-142.01,17.26-166.88,5.05,14.39-44.54,430.45,172.66,945.19,18.42,43.66,36.6,87.91,58.28,130.06-42.91-155.66-41.42-245.37-40.05-339.91.35-24.52-1.69-52.82,3.5-76.72,15.56,129.29,47.16,254.62,81.19,380,63.58,234.33,76.19,255.4,135.92,404.45,8.31,19.69,19.45,38.87,25.85,59.18-12.43-7.7-25.15-27.89-34.57-39.49v.02ZM1097.74,4462.01c-71.31-48.08-150.14-96.27-232.22-197.22-87.12-107.15-149.27-245.22-187.06-377.27-10.38-36.26-23.61-74.03-29.22-111.34,24.61,54.6,64.65,209.77,230.45,434.29,81.43,110.25,110.98,143.74,233.06,251.15,8.3,7.03,19.19,14.06,24.93,23.25-13.41-4.24-28.06-15.3-39.94-22.86h0ZM1191.29,4383.05c-20.26-27.02-46.82-57.53-60.83-87.73-3.11-2.37-3.7-4.11-5.4-7.55,2.15,2.48,4.38,4.38,5.4,7.55,12.53,6.53,35.6,55.98,170.72,183.46,251.44,237.25,443.31,263.4,454.93,279.21-210,32.76-437.61-205.3-564.83-374.93h0ZM1964.46,4823.31c-126.59-58.24-298.56-282.51-317.21-332.9,35.46,26.58,58.11,112.06,348.71,299.57-28.88-42.78-73.53-100.2-104.54-264.46,35.73,76.09,40.56,92.52,85.43,158.21,95.95,138.61,165.41,182.98,173.18,189.66-62.23-10.08-128.02-23.6-185.57-50.08h0ZM2058.26,4485.23c-52.6-133.94-20.65-35.78-155.2-498.72l-90.21,398.53c-54.29-59.11-102.81-121.82-147.74-188.28-52.11-77.08-34.93-45.28-101.15-180.61-3.72,76.8,16.77,155.85,38.53,228.74-46.04-48.19-87.77-99.1-123.87-155.21-16.86-26.2-32.95-48.56-35.4-80.44l3.06.91c1.51,5.96,2.35,11.04,5.81,16.22,10.02-10.03,15.51-29.66,20.96-42.9,18.86-45.79,35.72-91.53,49.31-139.19,24.41,6.68,62.36,12.32,83.2,25.34,19.4,100.32,46.87,194.83,93.04,286.39,6.19,12.28,13.61,32.13,24.42,40.34-8.62-73.04,8.39-194.6,30.65-271.14,270.66,68.86,462.87,87.16,723.43,34.32-29.91,161.16-79.93,316.19-142.37,467.5-6.11,14.82-12.82,42.46-22.26,53.9-13.52-77.92-38.04-155.09-59.71-231.08-20.63-72.36-39.97-147.6-66.18-218.05l-128.3,453.44h0ZM2252.39,4869.27c-11.41,2.16-24.87,6.06-36.29,5.57,26.58-18.19,55.4-49.2,75.91-71.06,75.16-80.06,140.3-168.64,177.6-272.64-5.14,50.81-34.61,147.8-51.59,182.4-12.47,25.42-28.6,49.09-43.34,73.23,15.47-5.37,34.42-21.75,48.38-31.09,90.61-60.61,156.68-104.2,298.5-260.67,8.75-10.3,16.95-21.68,27.7-29.93,1.76-5.64,3.11-6.33,7.65-10.27-2.52,5.4-2.18,7.44-7.65,10.27-12.95,30.14-41.47,60.47-62.02,86.4-208.09,262.54-296.59,291.56-434.84,317.8h0ZM3183.43,4354.82c-96.97,160.99-223.07,292.86-395.09,373.27-60.02,28.05-122.3,37.46-188.2,31.29,45.56-15.49,92.75-31.47,136.39-51.9,159.66-74.73,296.99-192.37,408.96-327.36l63.24-83.15c6.6-9.03,17.54-28.62,26.76-34.51-11.41,31.46-34.73,63.59-52.07,92.37h0ZM3684.48,3892.18c-71.72,201.52-179.46,399.43-350.2,534.1-80.81,60.34-77.8,58.77-85.65,61.29,19.62-26.59,40.74-41.42,62.2-64.25,118.16-135.95,241.29-261.05,366.12-548.72,19.19-44.23,31.22-92.8,51.82-135.9-3.18,26.84-25.01,91.63-44.29,153.49h0ZM4010.7,3654.93c-94.03,204.83-209.25,345.69-266.73,422.46l131.9-396.79c41.93-160.64,72.48-386.58,75.53-440.68,6.37,21.35,3.12,52.86,3.21,75.51.79,197.03-12.68,258.94-46.19,420.88,5-6.73-.74,5.33,61.45-145.17,124.82-305.09,156.69-490.59,173.58-704.66,7.33-92.82,9.52-187.08,1.26-279.97l.96.32c9.56,25.49,106.01,523.17-134.97,1048.1h0ZM3896.84,1740.73c-.69,21.98,6.34,48.57,9.43,70.58,13.9,118.34,21.17,170.93,20.09,205.95-9.18-15.12-12.21-46-16.56-63.81l-24.14-86.72c-113.24-373.46-239.85-454.5-322.61-536.13,10.3,2.98,22.66,13.74,31.35,19.95,73.92,55.59,161.2,121.12,245.94,216.5,176.57,198.75,285.75,461.42,345.05,718.03,15.19,65.72,32.88,134.94,40.43,201.94-105.15-271.58-34.4-109.52-328.97-746.31v.02Z"/></svg>