<?xml version="1.0" encoding="UTF-8"?><svg id="Layer_1" xmlns="http://www.w3.org/2000/svg" viewBox="0 0 5000 4886.1"><defs><style>.cls-1{fill:#fb69ff;}.cls-2{fill:#298e33;}</style></defs><path class="cls-1" d="M3049.8,905.23c-151.32,60.03-297.68,121.33-439.02,202.92-27.31,15.76-55.67,30.16-81.73,47.93,146.3-28.64-2.47,3.23,799.87-173.48l748.63-105.71c188.31-18.5,380.28-32.52,569.54-28.9-272.23-82.72-521.5-69.67-860.48-116.52-13.31-40.93-36.93-74.37-70.28-101.95-8.06-6.67-18.83-10.81-25.84-18.45-12.09-13.17-302.14-400.87-575.07-539.71-71.23-36.23-162.36-76.78-244.68-70.76-41,3.83-77.95,11.61-105.48,44.97-42.84,51.9-62.43,157.2,12.66,214.87,43.9,33.72,86.03,24.6,107.24-4.38,23.4-31.97,2.7-75.37-24.94-92.53-12.28-7.62-27.81-11.12-41.59-15.28,14.89,17.6,34.11,34.26,32.15,58.91-.31,3.95-1.18,5.93-3.64,8.98-12.17,3.35-26.3,4.03-37.62-2.52-25.47-14.73-32.55-44-11.02-74.26,31.71-44.6,105.44-16.98,146.61,16.87,40.21,33.05,69.32,78.53,92.44,124.59,72.82,145.12,74.69,255.66,96.72,466.02-15.02,11.06-29.76,20.83-39.1,37.45,2.97,27.16,11.55,54.66,21.3,80.15,3.6-14.58,13.06-74.28,22.95-80.38,32.33-19.92,233.64-92.55,455.06-122.55,30.72-4.16,66.46-10.4,97.43-8.63,22.88,23.9,43.38,46.65,62.01,74.15-325.6,31.13-448.85,76.91-704.14,178.19h.02Z"/><path class="cls-1" d="M1660.4,1143.7c83.67,24.56,137.75,108.73,255.95,165.74-114.95-11.09-239.38-6.23-332.37,70.95-34.53,28.65-62.81,71.17-67.27,116.66-5.54,56.47,15.37,116.83,51.4,160.36l31.58,33.3c-21.87-51.46-48.59-117.13-24.93-172.41,11.12-25.96,31.16-38.69,56.52-47.98,89.6-32.84,203.28-25.69,293.34,2.96,27.04,8.6,53.08,20.67,78.83,32.5-90.06,13.38-185.09,50.85-240.88,126.55-35.18,47.73-45.4,97.3-48.89,155.08,46.75-114.63,96.21-187.41,221.53-182.02,109.7,4.7,204.3,61.88,308.62,87.87,97.5,24.3,213.08,9.03,301.5-32.51,17.61-8.27,33.69-19.28,51.13-27.85,12.1-5.95,37.96-14,46.58-22.47,11.15-10.97,19.39-33.91,27.08-47.61,68.93-122.73,133.27-164.94,266.23-181.06,31.56-3.83,63.18-6.69,94.97-3.98,93.43,7.95,58.15,24.23,124.17-5.61,74.51-33.69,137.68-85.94,169.93-162.85l11.16-32.47c-11.17-5.68-24.57-11.51-33.86-19.86-32.46-29.22-59.04-85.53-51.24-136.13l-775.85,171.7c21.73-22.12,46.57-39.26,71.77-57.12-77.16-15.01-156.8-39.02-202.98-107.56-22.17-32.9-34.12-72.29-26.38-111.89,14.04-71.91,71.88-109.64,126.09-143.6-46.58,11.36-138.07,14.97-197.64,112.5-23.69,38.78-38.42,88.8-27.21,134.14,17.81,72.04,80.42,97.46,95.31,112.48-15.75-3.17-33.4-16.68-46.47-26.09-65.98-47.49-131.77-107.88-145.24-192.31-19.74-123.81,55.99-199.25,82.91-236.2-28.64,11.07-125.27,85.91-161.44,166.64-9.37,20.92-20.16,54.26-12.72,77.07,1.19,3.64,3.63,6.65,4.89,10.11l.31,3.04c-18.59-5.26-26.73-22.98-77.87-34.07-102.02-22.1-214.82,43.67-257.55,55.72-16.44,4.63-34.2,5.92-51.14,8.01,118.41,43.55,216.66,1.88,268.89,14.29,23.17,5.5,45.38,26.05,55.5,47.23,20.69,43.29,17.94,92.24,84.23,198.57-59.13-35.85-107.09-85.36-170.64-115.5-129.58-61.47-263.05-49.13-334.18-191.61-14-28.04-21.67-57.72-29.9-87.8-24.48,66.76,18.53,186.02,74.84,234.04-22.38,2.98-44.55,5.8-66.1,12.78-108.11,35.02-194.1,147.9-184.59,271.66,38.13-134.68,174.72-243.69,312.1-203.37h0ZM2896.4,1262.77c94.07-.02,182.17-20.04,268.91-56.65l45.32-20.86c8.32-4.21,20.01-11.69,28.94-13.21-31.24,35.73-221.8,107.61-343.64,94.57l.48-3.85h0ZM2266.77,1616.58l-4.26-2.47c8.07-2.44,17.83-.17,26.27-.05,65.23-.04,77.06,2.29,137.18-9.14,109.81-20.87,127.99-47.72,156.65-51.38-17.64,21.06-185.6,91.93-315.84,63.03h0ZM2633.09,1381.73c-11.73,12.45-31.19,21.31-46.17,29.59-159.78,88.27-317.59,109.55-489.15,41.05-9.95-3.98-25-8.12-32.86-15.05,27.41-.91,230.8,97.44,471.48-8.33l59.06-28.36c14.81-7.79,21.04-14.23,37.63-18.9h0ZM2049.47,1020.41c4.52,5.29,6.98,14.4,9.77,20.84l16.7,34.09c69.47,127.23,278.44,259.9,470.82,223.07l.48,3.02c-152.83,51.75-419.56-80.17-486.41-243.85-4.96-12.14-10.48-23.94-11.35-37.17h0Z"/><path class="cls-1" d="M3916,1076.6c530.52-108.44,651.64-185.64,717.44-207.52-123.04,1.17,14.45-7.6-785.82,57.87,3.54,56.92-.99,109.55-7.58,166.06l75.96-16.41h0Z"/><path class="cls-2" d="M3710.7,1484.9c20.05-20.48,9.94-54.58,21.39-81.02,5.71-13.18,19.54-20.32,24.92-31.92,5.74-12.39-1.05-22.74,9.46-34.97-13.97-17.36-79.93-14.11-95.65-56.99l114.93,32.02c.23-12.39-1.66-25.52,7.73-34.92,17.01-17.04,51.14-17.91,73.78-20.3-11.4-19.96-28.71-37.78-38.16-58.3-34.97-76.05,15.29-141.66,7.88-270.43-36.92,3.3,32.16-7.13-550.31,87.71l-.63,1.37c42.46,20.07,87.46,51.96,102.49,99.08,4.37,13.7,6.53,36.47,1.28,49.98-11.66,8.99-30.76,15.12-44.67,12.16-37.82,149.08-167.87,214.26-168.75,216.27-3.49,7.99,76.03,176.32,181.11,203.11l15.27,3.2c18.89.33,35.57-.4,50.24-14.09,4.72-4.4,10.11-10.4,11.96-16.74,4.34-14.92,1.93-32.24,5.7-47.9,8.48-35.3,27.11-69.01,42.08-101.93,4.95-10.88,10.18-27.57,17.61-36.48,39.85,25.44,81.12,47.47,122.98,69.4,24.9,13.04,58.52,36.24,87.36,31.71h0ZM3684.87,1051.57c12.49-2.54,33.89-2.49,46.06.98,21.66,6.16,34.01,23.25,44.51,41.8-15.51,15.4-35.04,42.65-86.63,16.01-26.57-13.73-50.13-32.42-72.24-52.4l68.3-6.38h0Z"/><path class="cls-1" d="M3377.2,1161.5c6.41-8.28,5.08-15.51,3.97-25.86-3.72-34.48-36.62-61.52-62.46-81.26-13.01-9.94-44.06-36.66-59.38-35.22-10.91,31.89,45.49,171.24,117.87,142.34h0Z"/><path class="cls-1" d="M3488.4,1614.4l5.05,2.43c6.7-7.4,7.59-36.2,9.43-47.47l-41.69-23.84c1.33,25.26,1.56,42.93-15.85,63.36-12.39,14.53-29.97,24.6-49.17,25.84-54.59,3.54-97-18.22-136.18-54.47-46.53-43.06-85.78-98.14-108.06-157.68-2.53-6.78-4.6-20.49-11.32-21.88-6.55,2.42-12.24,3.04-16.37,8.84,8.68,125.47,19.26,258.22,120.02,347.06,30.59,26.97,74.26,45.19,115.28,42.24,34.22-2.46,60.58-20.19,82.01-45.66,34.15-41.46,31.43-32.72,57.09-123.83-14.03-9.75-26.12-15.14-27.54-31.57l4.66-4.51,8.16,1.46c2.91,4.34,5.02,5.26,4.34,10.57-.67,5.24-.51,3.24.13,9.1h0ZM3177.61,1566.88l-4.03,3.53-2.45-1.68c-3.58-7.44-7.03-14.16-7.56-22.53-.42-6.45,1.02-6.63,5.23-11.58l4.99-.59c8.22,4.2,8.97,5.72,13.68,13.22-.79,8.92-4.27,12.85-9.86,19.63h0ZM3227.63,1622.76c-3.22,9.68-8.41,13.59-17.24,17.98l-7.08.12c-6.21-4.97-8.73-5.56-9.17-14.01-.79-15.28,11.16-29.3,21.27-39.17,4.52,1.55,8.19,8.07,10.44,12.28,4.04,7.59,4.48,14.71,1.78,22.81h0ZM3288.92,1688.33c-4.02,9.72-8.78,12.05-17.82,15.94-5.27.04-11.91-.11-16.39-3.3-5.65-4.03-9.08-12.85-8.98-19.63.22-15.46,11.9-30.35,22.43-40.6,4.35-.84,5.17-.1,9.25,1.22,4.05,4.38,8.53,8.98,10.89,14.54,4.31,10.18,4.85,21.58.62,31.83h0ZM3362.21,1722.87c-1.71,8.74-5.85,10.66-12.78,15.15-5.6.81-9.56.59-15.16.24-6.34-4.14-6.46-5.21-7.78-12.8-2.77-16.02,5.31-33.85,13.96-46.82l4.22.17,6.92,7.83c7.18,9.98,13.06,23.76,10.62,36.23h0ZM3423.31,1712.56l-8.19,5.79-7.42.72-4.31-5.05c-.79-13.89.99-25.45,7.33-37.9,2.05-.17,4.17.02,6.23.08,6.16,9.81,6.7,24.96,6.37,36.37h0ZM3466.91,1678.64l-6.31,3.76c-8.25-3.2-8.89-4.12-14.13-11.34-1-11.34,4.11-20.22,8.61-30.32l3.78-.54c9.76,13.87,9.26,22.22,8.05,38.44h0Z"/><path class="cls-1" d="M1545.49,3022.8c195.48-50.39,268.42-92.72,344.57-137.59,28.76-16.95,69.24-39.9,90.93-65.73-39.7,18-56.91,46.82-171.18,91.8-189.01,74.42-328.45,94.05-440.37,134.49-40.56,14.66-78.7,34.16-116.9,53.98-13.3,6.9-38.35,16.65-47.26,27.82,22.37-4.48,45.16-18.44,66.26-27.34,60.26-25.39,72.06-26.3,273.95-77.42Z"/><path class="cls-1" d="M1631.28,2463.88c-.21-.08-.42-.17-.63-.25l-1.54,4.18c.72-1.31,1.45-2.62,2.18-3.93Z"/><path class="cls-2" d="M1944.52,2441.08c11.84-9.96,34.57-14.32,57.96-22.55,161.16-64.12,123.84-54.78,301.44-145.79,51.4-26.34,108.98-48.26,156.15-81.49,61.49-43.33,88.84-110.88,114.19-136.75,17.26-17.61.92-.83,147.87-118.54-77.9-38.97-134.15-86.46-161.76-171.46-7.67,14.45-10.58,17.45-86.76,116.92-15.74,20.02-31.43,43.75-49.7,61.39-21.55,20.8-68.33,24.45-96.73,36.19-73.17,30.22-115.93,83.38-159.92,126.42-60.42,59.11-120.73,116.34-190.6,164.38-25.86,17.78-58.03,40.18-88.07,49.17-51.92,15.56-114.03-7.19-128.96-9.63-32.45-5.3-65.99,33.51-90.39,51.42-.16-.05-.34-.1-.52-.16l-38.08,103.03c.21.08.42.17.63.25-.73,1.31-1.46,2.61-2.18,3.93l-8,21.66c-.3,3.49.02,7.04,1.24,10.66,2.3,6.85,10.54,13.59,17,16.57,23.8,10.97,58.07,1.57,60.79,2.75,1.04.45.95,2.04,1.45,3.05,7.8,16.06,15.01,23.11,30.78,31.26,5.7-.14,10.01.17,15.16-2.58,10.46,11.1,10.21,49.55,61.86,25.54,11.77,13.22,17.32,21.83,32.98,22.37,6.8.24,12.35-.44,17.02-1.99l81.48-157.92,3.67,1.9Z"/><path class="cls-1" d="M1342.48,2255.54c-1.31-1.38-4.23-23.86-5.09-27.42-7.43-30.77-22-83.08-45.46-104.9-12.83-11.92-30.11-12.93-44.31,3.46-21.95,25.32-18.68,46.18-16.87,77.11l-51.45-18.38c-2.77-78.33-23.7-149.39-85.02-238.86-52.19-76.14-119.92-133.14-200.42-177.71l-175.6-86.19c1.28,32.99,6.79,63.32,17.2,94.63-11.92-10-21.87-24-31.43-36.21-29.48-37.65-53.89-76.75-64.01-123.46-4.44,34.16-10.4,63.82,1.54,95.43-18.18-11.97-36.38-24.5-56.22-33.61-98.79-45.35-164.11-31.55-280.16-125.03,15.17,55.31,44.58,82.06,53.74,97.25-23.35-10.43-95.25-61.26-140.68-129.11,1.41,19.02,2.27,38.62,6.85,57.21,12.75,51.74,47.93,102.32,87.96,136.54l42.32,33.36c-34.94-10.38-69.85-17.41-102.52-34.05,23.25,57.2,76.95,97.94,132.28,121.21l61.03,19.49c-35.41-.64-72.65-.04-107.69-5.69-16.7-2.69-34.8-11.33-50.69-12.8,25.69,65.05,80.25,85.46,136.38,117.48-149.35,15.57-237.35,85.28-330.34,95.01-31.09,3.25-63.01-.36-93.79-4.87,20.92,14.09,42.05,29.93,64.66,41.15,21.59,10.72,44.2,17.31,66.49,26.15l-77.4,1.75c235.78,136.83,318.76,129.02,376.81,139.03-103.06,20.22-150.31,1.3-192.23-5.99,87.39,49.91,177.23,83.43,278.06,92.65l-80.85,25.21c99.98,15.69,146.96-5.47,192.78-22.19,4.78-1.96,14.3-7.53,19.27-7.23-34.36,28.67-65.68,51.13-105.01,72.64,48.83,8.52,95.67,22.61,145.07,29.25,131.42,17.68,283.66-2.75,393.65-80.43,23.64-16.69,42.79-36.46,61.46-58.36l53.65,16.78c-28.06,21.05-59.21,49.47-64.12,86.59-8.9,67.2,83.75,35.93,151.23-10.22,5.6-3.83,37.39-31.43,40.1-31.42,4.04,0,14.59,5.12,18.85,6.61,117.87,40.69,184.61,57.65,259.08,85.09l37.42-101.25c-82.43-26.07-294.91-94.02-296.53-95.73Z"/><path class="cls-1" d="M3906.37,2936.46c-178.51-117.04-515.05-243.98-718.45-286.16-60.97-12.64-122.31-19.05-184.27-24.24.3-14.01.69-27.83,3.36-41.66,20.71-106.87,160.56-260.34,226.45-328.44,43.61-44.45,39.73-41.76,42.82-43.45,11.3-6.2,43.37-5.5,88.45-37.12,62.02-43.52,88.15-99.74,100.37-172.6,7.12,36.01-5.95,79.25-3.32,92.32,32.48-7.52,63.35-15.15,93.55-29.59,43.32-20.71,89.54-48.37,119.37-86.71,4.8-6.17,11.5-14.23,13.33-21.89,6.39-26.62-52.08-29.46-52.31-40.45-1.62-76.68,1.41-164.91-40.29-232.54-13.17-21.38-29.82-38.52-47.46-56.2-5.89-5.91-12.46-14.87-20.52-16.7-6.3,12.8,8.75,43.64,13.54,57.87-16.16,16.94-31.65,23.48-53.47,27.02l34.15,67.23c-19.66-1.74-17.12,1.51-41.96-4.2l-.51,5.52c-6.01,1.78-3.37.44-8.04,3.79l9.35,85.24c-24.79-10.07-39.19-20-58.91-38.45-7.43,24.17,2.7,24-23.41,91.55-24-12.9-40.08-31.73-55.58-53.53l-49.42,82.78c-19.32-34.45-34.14-79.64-41.35-118.33l-69.19,42.53c-1.97-37.76-3.1-70.34,2.32-105.78-29.98-2.04-59.12-12.43-87.21-22.43,1.61-6.78-.17-1.91,44.71-70.36-38.33-6.89-70.67-21.02-105.41-38.26,16.44-16.02,30.87-34.12,43.98-53.3,2.49-3.64,6.61-8.16,6.61-12.53-32.62-7.47-61.37-18.12-89.47-36.66,23.78-18.56,45.51-40.4,64.87-63.46-56.55-34.13-115.65-49.36-181.73-42.04-139.24,15.4-173.38,157.07-223.38,217.12-18.68,22.43-27.63,11.8-51.07,15.27-6.3.93-13.25,5.36-16.68,10.75-8.09,12.74-4.65,30.11-2.92,44.22,8.75,71.01,81.53,170.4,179.34,191.88,24.21-9.91,42.39-26.39,62.89-42.06-1.74,28.6-14.29,60.45-34.34,81.12-15.59,16.07-37.19,14.81-57.83,15.35-.69,79.53,1.44,169.95-40.5,236.02-51.57,81.23-167.34,89.85-316.38,182.31-103.83,64.41-132.84,92.85-205.57,164.03-21.14-7.26-152.89-48.65-210.31-70.16l-51.95,100.69,170.44,55.16c-546.72,362.88-890.78-189.55-1426.4,343.86,258.08-36.13,370-63.05,453.28-3.47,72.6,51.96,81.29,157.61,95.34,170.26,0,0,0,0,0,0,0,0,0,0,0,0,8.91-11.17,33.96-20.92,47.26-27.82,38.2-19.82,76.34-39.32,116.9-53.98,111.92-40.44,251.36-60.07,440.37-134.49,114.27-44.98,131.48-73.81,171.18-91.8-21.69,25.83-62.17,48.78-90.93,65.73-76.15,44.87-149.09,87.21-344.57,137.59-201.89,51.12-213.69,52.03-273.95,77.42-21.1,8.89-43.89,22.86-66.26,27.34,0,0,0,0,0,0h0c-11.67,11.18-80.67,38.44-135.35,103.3-60.95,72.3-109.95,211.52-127.9,303.02,53.92-44.57,112.75-80.45,174.7-112.61,260.49-135.19,319.61-56.41,417.56,47.16,24.75-5.16,54.02-27.12,76.41-40.26,236.45-138.69,389.81-373.73,423.59-411.58-5.08,15.69-7.53,17.87-61.64,96.78-259.5,360.53-391.95,359.34-491.65,410.81-93.36,48.19-138.27,161.11-157.22,265.39,11.09-4.72,20.99-12.94,31.44-19.06l53.93-29.65c93.98-50.24,211.37-81.23,259.67-77.4,23.44,1.85,43.14,12.59,158.48,64.13,413.78,176.2,504.16,10.74,661.88-7.98,92.01-10.93,182.51,26.81,267.53,9.5,12.27-2.5,18.88-5.64,26.77-15.37,3.15-13.24-1.58-24.14-5.21-36.77-20.59-71.66,40.66-95.36,113.47-116.49l103.62-28.94c7.03-2.03,24.33-4.81,29.95-8.77,1.86-1.31-2.1,2.56,32.01-46.6,94.15-125.33,194.3-171.84,318.21-189.64,75.55-10.85,88.42-2.08,106.26-11.08-12-5.57-59.96-18.84-114.02-56.55-8.94-6.24-20.76-13.89-26.8-22.89,19.09,6.26,37.16,21.57,55.18,31.09,72.74,38.44,156.8,50.57,165.66,54.66-8.93,2.73-71.02-7.77-151.06,13.48-120.8,32.05-246.99,108.11-314.54,179.15-46.23,48.61-51.92,67-193.3,287.81-75.29,114.91-85.91,101.09-104.73,133.56-3.62,31.55,7.86,63.81,23.04,91.04,21.11,37.86,50.06,56.54,90.84,68.07,31.86-22.26,60.94-57.17,89.66-83.84l128.16-109.01c273.15-209.31,173.65-126.97,435.84-357.5,42.74-35.6,90.03-59.21,128.68-100.62,37.82-40.52,69.23-96.67,85.2-149.93,10.66-35.53,3.71-49.1-12.88-82.09h-.02c-40.53-80.53-108.6-158.11-121.21-181.3,67.84-60.67,170.17-63.08,260.88-54.13Z"/><polygon class="cls-1" points="1205.28 3127.56 1205.28 3127.56 1205.28 3127.57 1205.28 3127.57 1205.28 3127.56"/><path class="cls-2" d="M4443.7,2690.5c54.24-18.15,141.57-46.43,169.12-102.54,4.24-8.63,5.38-19.17,6.86-28.59-193.14,134.18-335.01,121.48-398.41,140.24-210.75-146.5-308.66-319.98-437.34-362.49-4.55-1.51-37.57-9.09-38.53-10.41-5.99-8.16-9.92-34.3-12.51-44.62-64.83-254.48-56.69-230.1-65.46-232.01-68.56,53.4-150.33,84.83-236.81,92.2,150.53,291.24,165.97,328.65,211.43,374.47,33.39,33.64,45.85,36.99,359.33,198.99,56.37,28.14,122.31,53.41,172.21,91.75,70.79,54.4,57.66,103.71,83.26,127.69,37.54,35.16,107.35,22.25,150.31,147.47,18.32-15.36,29.78-29.66,32.3-54.45,6.83-67.21-87.06-82.42-82.98-163.49.45-9.07,2.35-20.17,9.86-26.3,20.65-16.87,88.71-21.73,114.67-17.03,59.28,10.72,138.67,94,201.24,52.35l18.2-14.68c-97.92,4.32-136.81-62.34-205.74-78.73l1-2.91c97.15-20.67,196.14,83.42,274.86-8.18-35.81.25-70.68,3.66-106.19-3.45-38.11-7.63-74.23-23.62-112.8-30.5-19.64-3.5-39.6-.35-59.21-3.15,19.23-4.32,38.41-8.79,58.02-10.97,70.2-7.78,164.6-2.16,192.32-69.05-30.07,7.57-59.44,17.85-89.99,23.52-31.92,5.93-65.79,4.53-98.12,6.67-37.25,2.47-73.35,8.78-110.89,8.19h0Z"/><path class="cls-1" d="M4996.1,3328.6c-9.28-20.42-72.06-29.27-1165.3-367.8-40.75-10.45-101.68,5.24-144.72,18.35,6.21,16.05,21.42,54.24,37.87,61.29,9.01,2.85,1165.8,359.03,1181.9,363.99,16.86,4.94,33.64,10.79,50.52,2.29,29.41-14.79,53.35-48.65,39.75-78.14h-.02Z"/><path class="cls-1" d="M2836.6,4147c-16.45-2.14-31.11-3.55-45.31-13.01-44.92-29.92-60.5-128.02-70.1-177.29-29.39,15.42-63.74,23.35-94.26,36.66-26.98,11.77-43.96,26.57-74.45,38.68,24.31-25.94,51.46-37.28,96.29-69.08,149.47-106.02,135.06-96.77,138.53-98.84,9.19-5.48,19.5-8.6,26.92-16.72,46.59-50.75,109.95-159.89,164.79-247.47,11.11-18.37,28.83-40.89,35.86-60.85l-106.44,36.97c-30.69,10.03-83.5,22.55-96.44,52.05-2.68,7.44-1.98,5.49-3.17,8.93-13.88,44.01,63.27,119.62-83.85,120.28-120.64.53-230.22-45.78-292.8,2.07-50.39,38.52-84.38,87.03-200.86,235.97l-150.31,173.49c47.9,123.88,96.64,135.74,118.37,162.38,88.14-73.56,139.94-104.64,302.19-227.44-4.64,16.84-15.69,31.65-27.01,47.6-31.09,43.79-66.96,79.16-116.99,99.87,19.55,29.25,39.09,57.94,63.24,83.69,26.07-48.07,80.81-93.64,129.13-119.3,18.2,54.61,7.73,119.45-7.05,181.38-7.58,31.81-18.97,37-6.18,77.4,25.5,80.48,98.54,151.06,163.44,201.72,20.84,16.26,64.98,53.56,89.32,43.87,42.78-17.03-3.68-78.52-14.6-102.84-34.64-77.1-48.31-126.87-1.68-285.46l63.4-184.73h.02Z"/><path class="cls-1" d="M2197.9,4332.5c1.12.43,2.22.88,3.35,1.29-.6-.85-1.25-1.68-1.92-2.51-.48.4-.95.82-1.43,1.22Z"/><path class="cls-1" d="M2064.6,4184.4c-33.49,18.6-27.76,15.02-30.61,18.44,4.07,58.02,25.28,114.59,59.07,161.95,5.47,7.67,23.44,25.87,25.8,33.52,1.1,3.55-2.3,9.51-4.04,12.42,9.02-6.06,51.89-52.01,83.05-78.29-63.55-24.62-100.46-92.51-133.26-148.04h0Z"/><path class="cls-1" d="M2777.8,3922.9l-.25-.52c-11.89,9.32-35.83,19.69-37.26,35.28-1.2,13.11,1.39,27.41,3.41,40.37,10.09,64.9,32.39,139.29,96.06,138.23,10.95-.18,15.71-3.26,24.2-7.27,21.34-18.77,35.78-40.02,48.65-65.22-83.48-20.19-112.19-60.5-134.8-140.88h0Z"/><path class="cls-1" d="M2062.5,4368.3c-35.61-54.87-52.97-115.44-39.56-180.22-95.88,10.08-189.18,14.42-225.66,62.71-20.97,27.74-49.88,112.08-150.54,126.13,17.24,23.9,29.57,48.74,42.16,75.26l144.6-74.48c-5.52,33.34-13.39,62.77-26.22,94.12-7.29,12.81-12.79,26.62-20.32,39.38l-37.15,57.69c6.11,99.08,35.37,174.29,105.17,246.23,25.87,26.67,67.8,70.33,107.27,71.01,8.26-3.68,15.94-7.95,18.44-17.48,4.69-17.92-1.7-40.39-5.41-57.92-47.96-226.53,111.16-342.06,134.42-394.5l-2.91-.51c-15.72-5.01-35.44-33.79-44.28-47.41h-.01Z"/></svg>